<svg width="12" height="14" viewBox="0 0 12 14" fill="none" xmlns="http://www.w3.org/2000/svg">
<path d="M11.469 11.6025L10.7034 3.64067C10.687 3.46391 10.5257 3.33008 10.337 3.33008H8.76212C8.74025 2.00184 7.56455 0.92865 6.12089 0.92865C4.67724 0.92865 3.50154 2.00184 3.47966 3.33008H1.90477C1.71338 3.33008 1.55479 3.46391 1.53839 3.64067L0.772815 11.6025C0.772815 11.6126 0.770081 11.6227 0.770081 11.6328C0.770081 12.5393 1.66963 13.2767 2.77698 13.2767H9.46481C10.5722 13.2767 11.4717 12.5393 11.4717 11.6328C11.4717 11.6227 11.4717 11.6126 11.469 11.6025ZM6.12089 1.61044C7.15715 1.61044 8.00202 2.37809 8.02389 3.33008H4.2179C4.23977 2.37809 5.08463 1.61044 6.12089 1.61044ZM9.46481 12.5949H2.77698C2.08249 12.5949 1.51925 12.1707 1.50831 11.648L2.24108 4.01439H3.47693V5.04971C3.47693 5.2391 3.64098 5.39061 3.84605 5.39061C4.05111 5.39061 4.21516 5.2391 4.21516 5.04971V4.01439H8.02389V5.04971C8.02389 5.2391 8.18794 5.39061 8.39301 5.39061C8.59807 5.39061 8.76212 5.2391 8.76212 5.04971V4.01439H9.99798L10.7335 11.648C10.7225 12.1707 10.1566 12.5949 9.46481 12.5949Z" fill="white"/>
</svg>
